<?xml version="1.0" encoding="UTF-8"?>
<svg id="Layer_2" data-name="Layer 2" xmlns="http://www.w3.org/2000/svg" viewBox="0 0 635.93 200.39">
  <defs>
    <style>
      .cls-1, .cls-2 {
        fill: #fafafa;
      }

      .cls-2 {
        font-family: Montserrat-Medium, Montserrat;
        font-size: 161.6px;
        font-weight: 500;
      }
    </style>
  </defs>
  <g id="Layer_1-2" data-name="Layer 1">
    <g>
      <g>
        <path class="cls-1" d="M22.44.06c.31-.03.62-.05.94-.05,10.76-.24,19.8,5.95,23.34,16.12,1.47,4.24,1.24,8.34,1.25,12.74l.06,11.87c6.9-4.19,13.82-8.33,20.77-12.42l17.62-10.47c8.98-5.3,16.53-11.35,27.58-8.55,5.55,1.38,10.31,4.94,13.2,9.87,3.01,5.1,3.89,11.18,2.44,16.92-1.04,4.13-3.29,7.85-6.46,10.69-2.69,2.44-6.6,4.54-9.78,6.38l-9.96,5.77-39.27,22.83c-9.11,5.03-14.58,11.89-15.93,22.47-.37,2.87-.24,6.57-.24,9.52v14.81c.01,7.88.01,13.66-5.18,20.15-13.71,17.15-40.34,8.77-42.62-12.78-.3-2.82-.19-5.6-.19-8.42v-12.33s.01-40.79.01-40.79v-35.26s0-10.65,0-10.65c0-2.48-.08-5.2.24-7.63.54-4.29,2.26-8.35,4.97-11.73C9.82,3.44,15.28.79,22.44.06Z"/>
        <path class="cls-1" d="M77.66,83.3l.24-.02c6.14-.53,13.64,1.77,18.24,5.86,2.4,2.13,4.61,4.3,6.9,6.56l11.24,11.18,7.04,6.95c1.83,1.8,4.36,4.15,5.73,6.24,2.18,3.32,3.64,7.64,3.97,11.59.54,6.57-1.54,13.08-5.78,18.12-4.09,4.76-9.89,7.72-16.14,8.25-6.8.42-13.53-1.29-18.81-5.66-1.78-1.47-3.58-3.33-5.24-4.97l-8.15-8.08-10.08-9.95c-6.24-6.18-10.82-10.13-11.77-19.52-.66-6.33,1.23-12.65,5.26-17.57,4.47-5.45,10.42-8.26,17.35-8.98Z"/>
      </g>
      <text class="cls-2" transform="translate(146.13 157.89)"><tspan x="0" y="0">OLBO</tspan></text>
    </g>
  </g>
</svg>